<?xml version="1.0" encoding="UTF-8"?>
<svg id="Layer_1" xmlns="http://www.w3.org/2000/svg" version="1.1" viewBox="0 0 1920 1080">
  <!-- Generator: Adobe Illustrator 29.0.1, SVG Export Plug-In . SVG Version: 2.1.0 Build 192)  -->
  <defs>
    <style>
      .st0 {
        fill: beige;
      }
    </style>
  </defs>
  <g>
    <g>
      <g>
        <path class="st0" d="M927.4,518.4c-.8,1.8-2.1,3.2-3.9,4.5-1.8,1.3-3.7,1.9-5.7,1.9h-50.1c-1,0-2-.2-3.1-.6-1.1-.4-1.9-1-2.6-1.8-.7-.8-1.1-1.8-1.3-2.9-.2-1.2,0-2.5.9-4.1l84.4-197.1c.8-1.8,2.1-3.2,3.9-4.5,1.8-1.3,3.8-1.9,6-1.9h40.8c1.9,0,3.8.6,5.7,1.9,1.8,1.3,3.2,2.8,3.9,4.5l85,197.9c.8,1.8.6,3.6-.4,5.5s-3.2,2.9-6.3,2.9h-49.8c-2.1,0-4.1-.6-6-1.9-1.8-1.3-3.2-2.8-4.2-4.5l-31.4-79.8c-1.9-4.9-4.3-10.5-7-17-2.7-6.5-5.2-12.6-7.6-18.2-.8-1.8-1.7-2.6-2.6-2.6s-1.8.9-2.6,2.6l-14.5,35.2-31.4,79.8h0Z"/>
        <path class="st0" d="M976.7,467.5c.2-2.2,1.2-4.3,2.8-5.9,1.8-1.8,4.4-2.7,7-2.6.3,0,.5-.2.6-.5v-1.2c.2-.3,0-.6-.3-.6-2.3-.1-4.7.5-6.7,1.6-.4-1.1-1.2-2-2-2.8-2.3-2.1-5.1-3.8-8-4.8-.4-.1-.8.2-.7.7.5,2.3,1.2,4.6,2.3,6.6,1.1,1.8,2.7,3.4,4.6,4.1-.9,1.5-1.5,3.2-1.7,4.9h-.2c-7.1,0-12.9,5.8-12.9,12.9s5.8,12.9,12.9,12.9,12.9-5.8,12.9-12.9-4.5-11.5-10.5-12.7h0Z"/>
      </g>
      <g>
        <path class="st0" d="M1281,518.4c-.8,1.8-2.1,3.2-3.9,4.5-1.8,1.3-3.7,1.9-5.7,1.9h-50.1c-1,0-2-.2-3.1-.6-1.1-.4-1.9-1-2.6-1.8-.7-.8-1.1-1.8-1.3-2.9-.2-1.2,0-2.5.9-4.1l84.4-197.1c.8-1.8,2.1-3.2,3.9-4.5,1.8-1.3,3.8-1.9,6-1.9h40.8c1.9,0,3.8.6,5.7,1.9,1.8,1.3,3.2,2.8,3.9,4.5l85,197.9c.8,1.8.6,3.6-.4,5.5s-3.2,2.9-6.3,2.9h-49.8c-2.1,0-4.1-.6-6-1.9-1.8-1.3-3.2-2.8-4.2-4.5l-31.4-79.8c-1.9-4.9-4.3-10.5-7-17-2.7-6.5-5.2-12.6-7.6-18.2-.8-1.8-1.7-2.6-2.6-2.6s-1.8.9-2.6,2.6l-14.6,35.2-31.4,79.8h0Z"/>
        <path class="st0" d="M1330.4,467.5c.2-2.2,1.2-4.3,2.8-5.9,1.8-1.8,4.4-2.7,7-2.6.3,0,.5-.2.6-.5v-1.2c.2-.3,0-.6-.3-.6-2.3-.1-4.7.5-6.7,1.6-.4-1.1-1.2-2-2.1-2.8-2.3-2.1-5.1-3.8-8.1-4.8-.4-.1-.8.2-.7.7.6,2.3,1.2,4.6,2.3,6.6,1.1,1.8,2.7,3.4,4.6,4.1-.9,1.5-1.5,3.2-1.7,4.9h-.2c-7.1,0-12.9,5.8-12.9,12.9s5.8,12.9,12.9,12.9,12.9-5.8,12.9-12.9-4.5-11.5-10.5-12.7h0Z"/>
      </g>
      <path class="st0" d="M858.4,362.3c-5.8-14.3-14.3-26.6-25.5-37-20.7-19.1-47.3-28.6-79.9-28.6h-84.8c-2.1,0-3.8.7-5.3,2.2-1.5,1.5-2.2,3.2-2.2,5.3v212.6c0,2.1.7,3.8,2.2,5.3,1.5,1.5,3.2,2.2,5.3,2.2h84.8c16.2,0,30.9-2.4,44.3-7.2,13.4-4.8,25.2-11.8,35.6-21.1,11.2-10.4,19.7-22.7,25.5-37.1,5.8-14.4,8.7-30.5,8.7-48.3s-2.9-33.9-8.7-48.2h0ZM800.1,439.5c-3.2,7.4-7.3,13-12.3,17.1-5,4-10.6,6.8-16.8,8.2-6.2,1.5-12.2,2.2-18,2.2h-23.3c-2.1,0-3.8-.7-5.3-2.2-1.5-1.5-2.2-3.2-2.2-5.3v-97.6c0-2.1.7-3.8,2.2-5.3,1.5-1.5,3.2-2.2,5.3-2.2h23.3c5.8,0,11.8.7,17.9,2.2,6.1,1.5,11.7,4.2,16.8,8.2,5.1,4,9.2,9.7,12.4,17.1,3.2,7.4,4.8,16.9,4.8,28.8s-1.6,21.4-4.8,28.8h0Z"/>
      <path class="st0" d="M1234.5,354.7h-43.5c-2.1,0-3.8.7-5.3,2.2-1.4,1.5-2.2,3.2-2.2,5.3v155.4c0,2.1-.7,3.8-2,5.3-1.3,1.5-3.2,2.2-5.4,2.2h-46.6c-2.1,0-3.8-.7-5.3-2.2-1.4-1.5-2.2-3.2-2.2-5.3v-155.4c0-2.1-.7-3.8-2-5.3s-3.2-2.2-5.4-2.2h-44.1c-2.1,0-3.8-.7-5.3-2.2-1.4-1.5-2.2-3.2-2.2-5.3v-42.3c0-2.1.7-3.8,2.2-5.3,1.4-1.5,3.2-2.2,5.3-2.2h164.1c2.3,0,4.1.7,5.4,2.2,1.3,1.5,2,3.2,2,5.3v42.3c0,2.1-.7,3.8-2,5.3-1.3,1.5-3.2,2.2-5.4,2.2h0Z"/>
    </g>
    <g>
      <g>
        <path class="st0" d="M1536.8,772.7c-.8,1.8-2.1,3.2-3.9,4.5-1.8,1.3-3.7,1.9-5.7,1.9h-50.1c-1,0-2-.2-3.1-.6-1.1-.4-1.9-1-2.6-1.8-.7-.8-1.1-1.8-1.3-2.9-.2-1.2,0-2.5.9-4.1l84.4-197.1c.8-1.8,2.1-3.2,3.9-4.5,1.8-1.3,3.8-1.9,6-1.9h40.8c1.9,0,3.8.6,5.7,1.9,1.8,1.3,3.2,2.8,3.9,4.5l85,197.9c.8,1.8.6,3.6-.4,5.5s-3.2,2.9-6.3,2.9h-49.8c-2.1,0-4.1-.6-6-1.9-1.8-1.3-3.2-2.8-4.2-4.5l-31.4-79.8c-1.9-4.8-4.3-10.5-7-17-2.7-6.5-5.2-12.6-7.6-18.2-.8-1.8-1.7-2.6-2.6-2.6s-1.8.9-2.6,2.6l-14.6,35.2-31.4,79.8h0Z"/>
        <path class="st0" d="M1586.1,721.8c.2-2.2,1.2-4.3,2.8-5.8,1.8-1.8,4.4-2.7,7-2.6.3,0,.5-.2.6-.5v-1.2c.2-.3,0-.6-.3-.6-2.3-.2-4.7.5-6.7,1.6-.4-1.1-1.2-2-2.1-2.8-2.3-2.1-5.1-3.8-8.1-4.8-.4-.2-.8.2-.7.7.6,2.3,1.2,4.6,2.3,6.6,1.1,1.8,2.7,3.4,4.6,4.2-.9,1.5-1.5,3.2-1.7,4.9h-.2c-7.1,0-12.9,5.8-12.9,12.9s5.8,12.9,12.9,12.9,12.9-5.8,12.9-12.9-4.5-11.5-10.5-12.7h0Z"/>
      </g>
      <path class="st0" d="M1490.3,608.9h-43.5c-2.1,0-3.8.7-5.3,2.2-1.4,1.5-2.2,3.2-2.2,5.3v155.4c0,2.1-.7,3.8-2,5.3-1.3,1.5-3.2,2.2-5.4,2.2h-46.6c-2.1,0-3.8-.7-5.3-2.2-1.4-1.5-2.2-3.2-2.2-5.3v-155.4c0-2.1-.7-3.8-2-5.3s-3.2-2.2-5.4-2.2h-44.1c-2.1,0-3.8-.7-5.3-2.2-1.4-1.5-2.2-3.2-2.2-5.3v-42.3c0-2.1.7-3.8,2.2-5.3,1.4-1.5,3.2-2.2,5.3-2.2h164.1c2.3,0,4.1.7,5.4,2.2s2,3.2,2,5.3v42.3c0,2.1-.7,3.8-2,5.3-1.3,1.5-3.2,2.2-5.4,2.2h0Z"/>
      <path class="st0" d="M882.1,718.9c-6,9.7-12.6,18.5-19.9,26.5s-15.4,14.7-24.4,20.2c-9,5.6-19,9.9-30,13-11,3.1-23.1,4.6-36.4,4.6s-32.1-3.1-46.6-9.3c-14.5-6.2-27.2-14.6-38.1-25.2-10.9-10.6-19.4-23-25.6-37.3-6.2-14.3-9.3-29.5-9.3-45.7s3.1-31.4,9.3-45.7c6.2-14.3,14.8-26.7,25.6-37.3,10.9-10.6,23.6-19,38.1-25.2,14.5-6.2,30-9.3,46.6-9.3s26,1.5,37,4.7,20.9,7.5,29.8,13c8.9,5.6,16.9,12.4,24.1,20.4s13.7,16.7,19.7,26.3c1,1.7,1.2,3.4.6,5.3-.6,1.9-1.9,3.2-3.7,4l-44.1,17.4c-2.1.8-4.2.8-6.2,0-2.1-.8-3.6-2.1-4.7-3.7-6-9.5-13.3-16.8-21.8-21.9-8.5-5.1-18.8-7.6-30.8-7.6s-15.3,1.7-22.2,5c-6.9,3.3-13,7.7-18.2,13.2-5.2,5.5-9.2,11.9-12.1,19.2-2.9,7.3-4.3,14.8-4.3,22.4s1.5,15.4,4.3,22.6c2.9,7.2,6.9,13.5,12.1,18.9,5.2,5.4,11.2,9.8,18.2,13.1s14.3,5,22.2,5c11.4,0,21.7-2.7,30.9-8.2,9.2-5.5,16.5-12.6,21.9-21.3,1-1.7,2.5-2.9,4.5-3.7,2-.8,4-.8,6.1,0l44.1,17.4c1.9.8,3.1,2.1,3.7,3.9.6,1.8.4,3.6-.6,5.4h0Z"/>
      <path class="st0" d="M966.7,616.4v13c0,2.1.7,3.8,2.2,5.3,1.5,1.5,3.2,2.2,5.3,2.2h84.2c2.1,0,3.8.7,5.3,2.2,1.4,1.5,2.2,3.2,2.2,5.3v42.9c0,2.1-.7,3.8-2.2,5.3s-3.2,2.2-5.3,2.2h-84.2c-2.1,0-3.8.7-5.3,2.2-1.5,1.5-2.2,3.2-2.2,5.3v11.8c0,2.1.7,3.8,2.2,5.3,1.5,1.5,3.2,2.2,5.3,2.2h96.7c2.1,0,3.8.7,5.3,2.2,1.4,1.5,2.2,3.2,2.2,5.3v42.9c0,2.1-.7,3.8-2.2,5.3-1.4,1.5-3.2,2.2-5.3,2.2h-158.2c-2.1,0-3.8-.7-5.3-2.2-1.5-1.5-2.2-3.2-2.2-5.3v-212.6c0-2.1.7-3.8,2.2-5.3,1.5-1.5,3.2-2.2,5.3-2.2h158.2c2.1,0,3.8.7,5.3,2.2,1.4,1.5,2.2,3.2,2.2,5.3v42.3c0,2.1-.7,3.8-2.2,5.3-1.4,1.5-3.2,2.2-5.3,2.2h-96.7c-2.1,0-3.8.7-5.3,2.2-1.5,1.5-2.2,3.2-2.2,5.3h0Z"/>
      <path class="st0" d="M1317.5,770.8c-6.8-9.1-14.6-19.2-23.3-30.2-8.7-11-17-21.7-24.9-32-1.2-1.7-1.6-3.4-1.1-5.1.5-1.8,1.6-3.3,3.3-4.5,5-3.1,9.4-7,13.4-11.7,3.9-4.7,7.3-9.9,10.3-15.7,2.9-5.8,5.1-12,6.7-18.5,1.6-6.5,2.3-13.1,2.3-19.7,0-12-2-23-6.1-32.9s-9.6-18.5-16.8-25.8-15.8-12.9-25.9-16.9c-10.2-4-21.2-6.1-33.2-6.1h-96.7c-2.1,0-3.8.7-5.3,2.2-1.4,1.5-2.2,3.2-2.2,5.3v212.6c0,2.1.7,3.8,2.2,5.3,1.5,1.5,3.2,2.2,5.3,2.2h46.5c2.1,0,3.8-.7,5.3-2.2,1.5-1.5,2.2-3.2,2.2-5.3v-50.3c0-2.1.7-3.8,2.2-5.3,1.4-1.5,3.2-2.2,5.3-2.2h6.8c2.1,0,4.2.6,6.5,1.7s4,2.5,5.3,4.2c6.4,9.1,12.8,18.1,19.3,27s13,17.7,19.6,26.4c1.2,1.7,3.1,3.1,5.4,4.2,2.4,1.1,4.6,1.7,6.7,1.7h57.8c2.1,0,3.4-1,4-3,.6-2,.3-3.8-.9-5.4h0ZM1240.5,643.7c-1.4,2.9-3.3,5.3-5.6,7.3-2.3,2-4.7,3.4-7.4,4.3s-5.3,1.4-7.7,1.4h-32.8c-2.1,0-3.8-.7-5.2-2.2-1.4-1.5-2.2-3.2-2.2-5.3v-32.9c0-2.1.7-3.8,2.2-5.3,1.4-1.5,3.2-2.2,5.2-2.2h32.8c4.3,0,8,.9,11,2.6s5.4,3.9,7.1,6.5,3,5.3,3.7,8.1,1.1,5.2,1.1,7.3c0,3.9-.7,7.4-2.2,10.3h0Z"/>
    </g>
  </g>
  <g>
    <g>
      <path class="st0" d="M515.9,629.1c.8.7,1.6,1.4,2.4,2.2,9.1,9.1,14.9,21.3,16.9,34.3-3.9-5-7.3-10.1-10.9-14.9-8.8-12-19.4-22.2-32.7-27.2-22.3-4.3-46.8-6.8-72.6-7,12.1,6.4,22.3,17.9,28,30.4,3.6,7.5,6.2,15.5,7.4,23.9-9.5-12.5-17.6-25.6-28.6-36.3-7.9-7.7-16.7-13.7-26.6-17.7-23.6.9-45.9,3.6-66.3,7.9,6,2,11.7,5.6,16.2,10.1,9.1,9.1,14.9,21.3,16.9,34.3-3.9-5-7.3-10.1-10.9-14.9-8.7-12-19.2-22-32.5-27.2-60.2,14.7-101,43.3-101,76.2,0,47.9,86.7,86.8,193.6,86.8s193.6-38.8,193.6-86.8-37.2-58.9-92.9-74.1Z"/>
      <g>
        <path class="st0" d="M454.3,500.4c-27.8,42.5-69.4,75.8-117.2,93.2-21.2,7.7-43.3,12.4-65.1,17.8-9.5,2.4-18.7,5.2-27.7,8.3-1.5,2.6-3.1,5.1-4.7,7.6-2.2,3.6-9.1,10.7-7.9,14.8,19.9-8.5,39.2-15.8,60.4-21.1,21.1-5.3,42.5-9.8,62.9-17.2,51.5-18.7,95.7-56.7,122-104.7-7.6.6-15.2,1-22.8,1.3Z"/>
        <path class="st0" d="M297,487.3c1.6.3-13.1,46.6-14.6,50.7-6.3,16.8-13.9,33.1-22.7,48.7-2.4,4.3-4.9,8.5-7.6,12.7-1.7,2.8-7.1,8.3-6.2,11.5,15.5-6.6,32.6-10.6,49-14.7,16.4-4.1,30.8-9.3,46.7-15.1,40-14.6,79.8-43.1,100.2-80.3-46.7,3.9-99.1-3.7-144.9-13.4ZM291.4,575.4c-1.3,2.8-4.4,4.1-6.8,3-2.5-1.2-3.4-4.4-2.1-7.2,1.3-2.8,9.1-7.8,9.1-7.8,0,0,1.1,9.2-.2,12ZM313.3,533.8c-1.3,2.8-4.4,4.1-6.8,3-2.5-1.2-3.4-4.4-2.1-7.2s9.1-7.8,9.1-7.8c0,0,1.1,9.2-.2,12ZM330.9,562.3c-1.3,2.8-4.4,4.1-6.8,3-2.5-1.2-3.4-4.4-2.1-7.2,1.3-2.8,9.1-7.8,9.1-7.8,0,0,1.1,9.2-.2,12ZM348.4,518.4c-1.3,2.8-4.4,4.1-6.8,3-2.5-1.2-3.4-4.4-2.1-7.2,1.3-2.8,9.1-7.8,9.1-7.8,0,0,1.1,9.2-.2,12ZM368.2,546.9c-1.3,2.8-4.4,4.1-6.8,3-2.5-1.2-3.4-4.4-2.1-7.2,1.3-2.8,9.1-7.8,9.1-7.8,0,0,1.1,9.2-.2,12ZM402.2,522.8c-1.3,2.8-4.4,4.1-6.8,3-2.5-1.2-3.4-4.4-2.1-7.2s9.1-7.8,9.1-7.8c0,0,1.1,9.2-.2,12Z"/>
      </g>
      <g>
        <path class="st0" d="M412.9,605.5c73.4,0,139,16.8,181.9,42.9-2.6-15-5.8-30-10.9-44.4-6.8-18.9-17.3-36.9-32.8-49.5-15.5-12.7-36.6-19.5-56.2-15.1-16.6,3.7-30.5,14.8-44.1,25-14,10.6-28.3,20.6-43,30.2-6,3.9-12,7.7-18.1,11.4,7.6-.4,15.4-.6,23.2-.6Z"/>
        <path class="st0" d="M513.8,546.5c2.7-8.6,3.4-17.8,1.7-26.7-1-4.4-2-9.4-5.7-12.2s-.5-.7-.4-1.2.3-.9.5-1.3.8-.8,1.4-.6c7.6,3.1,8.5,13.2,8.8,20.4,0,7.6-1.7,15.3-5.3,22,0,0-1-.4-1-.4h0Z"/>
        <path class="st0" d="M550.4,503.1c-1.6-3.7-4-7.1-6-10.6-6.5-11.3-10-24.3-10-37.3-3.8,12.5,0,25.9,4,38.1,3.1,9,5.9,21.1-3.8,27.3-4.9,3.1-11,3.7-16.6,3.5,6.3-2.1,14.2-4,17.5-10,2.9-6,.9-13.5,0-20.1-2.5-13-6-26.9-1.1-39.6,0-.5,0-1,0-1.4-6.8,7.3-6.9,18.3-6.4,28.3.6,9.9,1.1,20.8-4.7,28.8-2.3,3.1-10.3,10.1-5.5,14,3.9,3.2,14.5,3.1,19.1,2.5,6.6-.9,13.2-5.1,14.9-11.6,1-3.9.2-8.2-1.5-11.9Z"/>
      </g>
      <g>
        <path class="st0" d="M404.7,334c16.9-21.2,26.8-48,23.3-75.3-.9-8.5-2.9-16.9-5.5-25-.2-.8.2-1.6.9-1.8l1.4-.5c.8-.3,1.6.2,1.9.9,12.6,37.3,6.9,72.3-17.6,103.3-.5.6-1.4.7-2.1.2-1-.8-2.3-1.8-2.3-1.8h0Z"/>
        <path class="st0" d="M464.5,265.5c-7.3,3.8-14.9,7.1-23.1,8.6,10.4-5.8,26-12.8,38-18.9-1.6-.6-16.9,1.6-18.4,2-10.9,3-20.9,9.2-28.4,17.7-1.4,1.6-4.3,3.9-2.6,6,1.6,2,6.9.9,9.1.7,7-.4,14-1.4,20.6-3.9,9.5-3.7,18-11.6,19.7-21.6-4.5,3-10.8,7.1-14.9,9.4Z"/>
      </g>
      <g>
        <path class="st0" d="M493.7,512.7l-3.3,1.5c-1.2-3.5-.2-8.1,2.7-12.4,2.3-3.4,5.3-6.2,8.4-8.9s.9-.4,1.2,0l1,1.1c.3.3.2.8-.2,1.2-2.8,2.5-5.6,5.1-7.6,8-2.3,3.4-3.1,6.9-2.2,9.5Z"/>
        <path class="st0" d="M501.1,517.9c-.4-2.7-2.4-5.2-4.9-6.3-2.1-.9-4.5-.8-6.8-.8-1.9,0-3.9.1-5.6,1-1.8,1-3.1,2.7-4.3,4.4-1.9,2.8-3.9,5.8-3.6,9.2.3,3.3,2.9,6.2,6.1,7.2,3.2,1.1,6.7.5,9.7-1,4.8-2.4,10.5-7.9,9.5-13.9Z"/>
      </g>
      <path class="st0" d="M415.7,805.5c-24,0-47.7-2.9-69.9-5.5,10.2,28.4,37.4,48.7,69.4,48.7s59.1-20.3,69.4-48.7c-22.2,2.6-44.9,5.5-68.8,5.5Z"/>
      <path class="st0" d="M518.2,423.2c-2.1-4.8-.6-10.9,3.4-14.4,0-.2,0-.3,0-.5-5.9-.7-11.2-5.5-12.3-11.4-1.2-6.1,2.2-12.7,7.7-15.4-3.1,1.4-6.9-.2-8.8-2.9-1.9-2.8-2.2-6.4-1.7-9.7.6-3.6,2.4-7.4,5.8-8.6.2,0,.4-.1.6-.2-7.4-20.1-21.1-38.6-40.5-49.5-16.5-9.3-33.4,4.6-52.6,3.8-17-.6-37.3-16.4-52-8.4-21.7,11.8-86.6,77.4-55.7,156.5,9.3,23.9,126.7,31.1,190,15.9,15.3-3.7,20.2-25.9,20.3-50.4-1.8-1.2-3.2-2.8-4.1-4.8Z"/>
    </g>
    <g>
      <path class="st0" d="M306.9,333.8c-2.6-1.1-4-3.9-3.1-6.7,5.4-18,16.1-32.6,31.2-42.3,15-9.7,32.8-13.4,51.4-10.8,3,.4,5.1,3.2,4.7,6.2-.4,3-3.2,5.1-6.2,4.7-16-2.2-31.2,1-44,9.2-12.8,8.2-22,20.7-26.6,36.2-.9,2.9-3.9,4.6-6.9,3.7-.2,0-.4-.1-.6-.2Z"/>
      <path class="st0" d="M285.4,334.8c-2.5-1-3.9-3.8-3.2-6.5,6.9-25.8,21.5-46.5,42.3-59.9,20.8-13.4,45.7-18.1,72-13.7,3,.5,5,3.3,4.5,6.3-.5,3-3.3,5-6.3,4.5-23.5-4-45.7.2-64.2,12.1-18.5,11.9-31.5,30.4-37.6,53.4-.8,2.9-3.8,4.7-6.7,3.9-.2,0-.5-.1-.7-.2Z"/>
      <path class="st0" d="M264.7,333.6c-2.5-1-3.9-3.8-3.2-6.5,8.6-32.4,27-58.5,53.2-75.3,26.2-16.8,57.5-22.8,90.6-17.2,3,.5,5,3.3,4.5,6.3-.5,3-3.3,5-6.3,4.5-30.3-5.1-59,.3-82.8,15.6-23.8,15.3-40.6,39.2-48.5,68.9-.8,2.9-3.8,4.7-6.7,3.9-.2,0-.5-.1-.7-.2Z"/>
    </g>
  </g>
</svg>