<?xml version="1.0" encoding="UTF-8"?>
<svg id="Layer_1" xmlns="http://www.w3.org/2000/svg" version="1.1" viewBox="0 0 1080 1080">
  <!-- Generator: Adobe Illustrator 29.0.1, SVG Export Plug-In . SVG Version: 2.1.0 Build 192)  -->
  <defs>
    <style>
      .st0 {
        fill: beige;
      }
    </style>
  </defs>
  <g>
    <path class="st0" d="M697.52,679.45c1.29,1.1,2.54,2.24,3.73,3.41,14.23,14.17,23.35,33.32,26.4,53.73-6.08-7.89-11.4-15.85-17.02-23.3-13.75-18.84-30.31-34.66-51.15-42.63-34.95-6.73-73.28-10.6-113.54-10.94,18.91,9.97,34.94,28.02,43.88,47.49,5.63,11.79,9.68,24.25,11.5,37.35-14.93-19.62-27.61-40.07-44.78-56.73-12.41-12.1-26.05-21.5-41.56-27.68-36.85,1.35-71.82,5.66-103.75,12.39,9.42,3.12,18.25,8.81,25.27,15.73,14.23,14.17,23.35,33.32,26.4,53.73-6.08-7.89-11.4-15.85-17.02-23.3-13.67-18.73-30.11-34.47-50.77-42.49-94.14,23.02-158.01,67.78-158.01,119.23,0,74.97,135.62,135.74,302.91,135.74s302.91-60.77,302.91-135.74c0-49.11-58.21-92.13-145.39-115.97Z"/>
    <g>
      <path class="st0" d="M601.11,478.11c-43.43,66.5-108.66,118.67-183.32,145.87-33.14,12.07-67.73,19.36-101.88,27.9-14.87,3.72-29.18,8.1-43.28,12.95-2.4,4-4.83,7.99-7.3,11.94-3.5,5.58-14.24,16.76-12.4,23.18,31.15-13.31,61.4-24.77,94.43-33.03,33.01-8.26,66.44-15.29,98.47-26.96,80.51-29.33,149.68-88.69,190.9-163.8-11.87.98-23.74,1.62-35.62,1.96Z"/>
      <path class="st0" d="M355.07,457.48c2.43.51-20.44,72.88-22.84,79.31-9.83,26.26-21.74,51.74-35.58,76.12-3.8,6.69-7.74,13.29-11.83,19.81-2.72,4.33-11.05,13.01-9.62,18,24.19-10.34,51-16.59,76.65-23.01,25.63-6.41,48.25-14.52,73.13-23.58,62.51-22.77,124.8-67.38,156.81-125.71-73.01,6.03-155.03-5.82-226.71-20.95ZM346.26,595.44c-2.05,4.37-6.85,6.44-10.72,4.63-3.87-1.82-5.34-6.83-3.29-11.2,2.05-4.37,14.29-12.24,14.29-12.24,0,0,1.77,14.44-.29,18.81ZM380.58,530.24c-2.05,4.37-6.85,6.44-10.72,4.63-3.87-1.82-5.34-6.83-3.29-11.2,2.05-4.37,14.29-12.24,14.29-12.24,0,0,1.77,14.44-.29,18.81ZM408.04,574.85c-2.05,4.37-6.85,6.44-10.72,4.63-3.87-1.82-5.34-6.83-3.29-11.2,2.05-4.37,14.29-12.24,14.29-12.24,0,0,1.77,14.44-.29,18.81ZM435.49,506.22c-2.05,4.37-6.85,6.44-10.72,4.63-3.87-1.82-5.34-6.83-3.29-11.2,2.05-4.37,14.29-12.24,14.29-12.24,0,0,1.77,14.44-.29,18.81ZM466.38,550.83c-2.05,4.37-6.85,6.44-10.72,4.63-3.87-1.82-5.34-6.83-3.29-11.2,2.05-4.37,14.29-12.24,14.29-12.24,0,0,1.77,14.44-.29,18.81ZM519.57,513.08c-2.05,4.37-6.85,6.44-10.72,4.63-3.87-1.82-5.34-6.83-3.29-11.2,2.05-4.37,14.29-12.24,14.29-12.24,0,0,1.77,14.44-.29,18.81Z"/>
    </g>
    <g>
      <path class="st0" d="M536.33,642.46c114.91,0,217.43,26.21,284.52,67.19-4.13-23.54-9.04-46.95-17.09-69.42-10.59-29.54-27.04-57.69-51.37-77.52-24.33-19.83-57.24-30.45-87.86-23.58-26,5.83-47.68,23.11-68.94,39.18-21.85,16.52-44.29,32.26-67.25,47.2-9.35,6.08-18.79,12.01-28.31,17.83,11.94-.58,24.05-.89,36.29-.89Z"/>
      <path class="st0" d="M694.27,550.22c4.3-13.43,5.39-27.89,2.73-41.72-1.54-6.87-3.15-14.77-8.92-19.13-.58-.43-.84-1.17-.59-1.84.22-.6.49-1.35.72-2,.31-.86,1.27-1.28,2.12-.94,11.97,4.79,13.3,20.62,13.75,31.9.15,11.93-2.64,23.94-8.28,34.4,0,0-1.53-.66-1.53-.66h0Z"/>
      <path class="st0" d="M751.5,482.2c-2.55-5.84-6.21-11.11-9.4-16.63-10.22-17.63-15.67-37.99-15.68-58.36-5.94,19.51.03,40.54,6.33,59.61,4.84,14.12,9.17,33.06-5.93,42.7-7.62,4.89-17.27,5.85-25.99,5.54,9.91-3.27,22.24-6.27,27.4-15.66,4.46-9.4,1.4-21.17-.06-31.44-3.97-20.35-9.43-42.07-1.73-61.94,0-.75,0-1.49.03-2.24-10.61,11.37-10.83,28.7-9.96,44.23.87,15.53,1.79,32.53-7.42,45.07-3.59,4.9-16.06,15.83-8.57,21.96,6.1,4.99,22.67,4.88,29.9,3.87,10.35-1.44,20.69-8,23.37-18.1,1.64-6.16.26-12.77-2.29-18.61Z"/>
    </g>
    <g>
      <path class="st0" d="M523.6,217.66c26.5-33.17,41.97-75.14,36.46-117.8-1.47-13.27-4.53-26.37-8.67-39.14-.38-1.19.25-2.46,1.43-2.87l2.17-.74c1.2-.41,2.51.24,2.91,1.44,19.7,58.42,10.83,113.11-27.51,161.55-.78.99-2.23,1.16-3.22.37-1.56-1.23-3.58-2.82-3.58-2.82h0Z"/>
      <path class="st0" d="M617.05,110.49c-11.4,5.97-23.38,11.1-36.09,13.51,16.24-9.15,40.66-19.98,59.47-29.55-2.5-.88-26.51,2.57-28.71,3.18-17.04,4.69-32.76,14.34-44.44,27.63-2.15,2.45-6.72,6.12-4.09,9.36,2.56,3.15,10.77,1.33,14.16,1.12,10.94-.66,21.95-2.15,32.21-6.17,14.84-5.82,28.15-18.12,30.87-33.75-7.08,4.74-16.85,11.11-23.38,14.67Z"/>
    </g>
    <g>
      <path class="st0" d="M662.82,497.31l-5.21,2.37c-1.89-5.44-.33-12.68,4.16-19.37,3.59-5.35,8.36-9.71,13.08-13.87.61-.54,1.48-.58,1.95-.09l1.62,1.7c.46.49.35,1.31-.26,1.85-4.39,3.88-8.81,7.92-11.94,12.58-3.53,5.26-4.8,10.8-3.4,14.84Z"/>
      <path class="st0" d="M674.36,505.4c-.7-4.29-3.73-8.12-7.74-9.78-3.34-1.38-7.07-1.29-10.68-1.18-2.97.09-6.05.21-8.69,1.57-2.89,1.49-4.87,4.26-6.73,6.93-3,4.32-6.13,9.11-5.71,14.36.42,5.2,4.53,9.67,9.48,11.33,4.94,1.66,10.49.8,15.18-1.49,7.57-3.7,16.4-12.4,14.89-21.74Z"/>
    </g>
    <path class="st0" d="M540.81,955.33c-37.48,0-74.65-4.58-109.33-8.58,16.01,44.46,58.55,76.26,108.52,76.26s92.51-31.8,108.52-76.26c-34.68,4.01-70.24,8.58-107.72,8.58Z"/>
    <path class="st0" d="M701.2,357.33c-3.27-7.56-.97-17.11,5.25-22.47-.02-.24-.04-.49-.06-.73-9.29-1.06-17.53-8.6-19.31-17.81-1.83-9.48,3.36-19.86,12.04-24.09-4.79,2.19-10.81-.27-13.81-4.6-3-4.33-3.45-10-2.61-15.2.91-5.63,3.77-11.57,9.13-13.52.3-.11.59-.19.89-.27-11.55-31.48-33.06-60.35-63.4-77.47-25.74-14.53-52.2,7.17-82.28,6.01-26.52-1.02-58.3-25.73-81.34-13.19-33.97,18.48-135.56,121.03-87.11,244.9,14.6,37.33,198.29,48.66,297.25,24.84,23.91-5.76,31.56-40.56,31.78-78.87-2.75-1.88-5.08-4.41-6.42-7.53Z"/>
  </g>
  <g>
    <path class="st0" d="M370.62,217.33c-4.01-1.68-6.19-6.15-4.92-10.4,8.38-28.17,25.25-51.07,48.77-66.21,23.53-15.14,51.35-21.01,80.46-16.97,4.72.65,8.01,5.01,7.35,9.72-.65,4.72-5.01,8.01-9.72,7.35-24.97-3.46-48.75,1.51-68.76,14.39-20.01,12.88-34.39,32.46-41.58,56.63-1.36,4.56-6.16,7.16-10.72,5.81-.3-.09-.6-.2-.89-.32Z"/>
    <path class="st0" d="M336.95,219c-3.91-1.64-6.11-5.95-4.99-10.16,10.73-40.32,33.61-72.71,66.16-93.67,32.56-20.96,71.51-28.37,112.66-21.44,4.69.79,7.86,5.24,7.07,9.93-.79,4.69-5.24,7.86-9.93,7.07-36.83-6.21-71.57.34-100.46,18.93-28.89,18.59-49.23,47.5-58.83,83.6-1.22,4.6-5.95,7.34-10.55,6.11-.39-.1-.77-.23-1.13-.38Z"/>
    <path class="st0" d="M304.57,217.07c-3.91-1.64-6.11-5.95-4.99-10.16,13.5-50.74,42.27-91.49,83.21-117.83,40.93-26.35,89.94-35.67,141.71-26.94,4.7.79,7.86,5.24,7.07,9.93-.79,4.7-5.24,7.86-9.93,7.07-47.47-8-92.25.45-129.51,24.44-37.26,23.99-63.5,61.25-75.88,107.77-1.22,4.6-5.95,7.34-10.55,6.11-.39-.1-.77-.23-1.13-.38Z"/>
  </g>
</svg>