<?xml version="1.0" encoding="UTF-8"?>
<svg id="Layer_1" xmlns="http://www.w3.org/2000/svg" version="1.1" viewBox="0 0 1080 1080">
  <!-- Generator: Adobe Illustrator 29.0.1, SVG Export Plug-In . SVG Version: 2.1.0 Build 192)  -->
  <defs>
    <style>
      .st0 {
        fill: #4a6b3b;
      }
    </style>
  </defs>
  <g>
    <g>
      <path class="st0" d="M343.11,522.94c-.62,1.38-1.65,2.57-3.11,3.57-1.46,1-2.95,1.5-4.49,1.5h-39.57c-.77,0-1.57-.15-2.42-.46-.84-.31-1.53-.77-2.07-1.38-.54-.61-.88-1.38-1.04-2.3-.15-.92.08-1.99.69-3.22l66.72-155.75c.61-1.38,1.65-2.57,3.11-3.57,1.46-1,3.03-1.5,4.72-1.5h32.21c1.53,0,3.03.5,4.49,1.5,1.46,1,2.49,2.19,3.11,3.57l67.18,156.44c.61,1.38.5,2.84-.35,4.37-.84,1.54-2.49,2.3-4.95,2.3h-39.34c-1.69,0-3.26-.5-4.72-1.5-1.46-1-2.57-2.19-3.34-3.57l-24.85-63.04c-1.53-3.83-3.38-8.32-5.52-13.46-2.15-5.14-4.14-9.93-5.98-14.38-.62-1.38-1.31-2.07-2.07-2.07s-1.46.69-2.07,2.07l-11.5,27.84-24.85,63.04Z"/>
      <path class="st0" d="M382.1,482.72c.17-1.74.95-3.41,2.21-4.62,1.46-1.4,3.49-2.15,5.51-2.04.22.01.42-.14.44-.36l.11-.97c.03-.23-.14-.45-.38-.46-1.84-.12-3.7.35-5.28,1.29-.31-.84-.96-1.57-1.62-2.18-1.86-1.69-4.03-2.99-6.36-3.8-.33-.11-.65.19-.57.53.43,1.82.93,3.65,1.86,5.25.84,1.46,2.11,2.71,3.6,3.28-.72,1.19-1.17,2.53-1.31,3.91-.04,0-.09,0-.13,0-5.63,0-10.2,4.57-10.2,10.2s4.57,10.2,10.2,10.2,10.2-4.57,10.2-10.2c0-4.97-3.56-9.11-8.27-10.01Z"/>
    </g>
    <g>
      <path class="st0" d="M622.62,522.94c-.62,1.38-1.65,2.57-3.11,3.57-1.46,1-2.95,1.5-4.49,1.5h-39.57c-.77,0-1.57-.15-2.42-.46-.84-.31-1.53-.77-2.07-1.38-.54-.61-.88-1.38-1.04-2.3-.15-.92.08-1.99.69-3.22l66.72-155.75c.61-1.38,1.65-2.57,3.11-3.57,1.46-1,3.03-1.5,4.72-1.5h32.21c1.53,0,3.03.5,4.49,1.5,1.46,1,2.49,2.19,3.11,3.57l67.18,156.44c.61,1.38.5,2.84-.35,4.37-.84,1.54-2.49,2.3-4.95,2.3h-39.34c-1.69,0-3.26-.5-4.72-1.5-1.46-1-2.57-2.19-3.34-3.57l-24.85-63.04c-1.53-3.83-3.38-8.32-5.52-13.46-2.15-5.14-4.14-9.93-5.98-14.38-.62-1.38-1.31-2.07-2.07-2.07s-1.46.69-2.07,2.07l-11.5,27.84-24.85,63.04Z"/>
      <path class="st0" d="M661.61,482.72c.17-1.74.95-3.41,2.21-4.62,1.46-1.4,3.49-2.15,5.51-2.04.22.01.42-.14.44-.36l.11-.97c.03-.23-.14-.45-.38-.46-1.84-.12-3.7.35-5.28,1.29-.31-.84-.96-1.57-1.62-2.18-1.86-1.69-4.03-2.99-6.36-3.8-.33-.11-.65.19-.57.53.43,1.82.93,3.65,1.86,5.25.84,1.46,2.11,2.71,3.6,3.28-.72,1.19-1.17,2.53-1.31,3.91-.04,0-.09,0-.13,0-5.63,0-10.2,4.57-10.2,10.2s4.57,10.2,10.2,10.2,10.2-4.57,10.2-10.2c0-4.97-3.56-9.11-8.27-10.01Z"/>
    </g>
    <path class="st0" d="M288.6,399.56c-4.59-11.3-11.3-21.04-20.14-29.23-16.38-15.06-37.42-22.6-63.13-22.6h-67.06c-1.64,0-3.03.58-4.18,1.72-1.15,1.15-1.72,2.54-1.72,4.18v168.01c0,1.64.57,3.03,1.72,4.18,1.14,1.15,2.54,1.72,4.18,1.72h67.06c12.77,0,24.44-1.88,35-5.65,10.56-3.76,19.93-9.33,28.12-16.7,8.84-8.19,15.55-17.97,20.14-29.35,4.58-11.38,6.88-24.11,6.88-38.19s-2.29-26.77-6.88-38.07ZM242.54,460.6c-2.54,5.81-5.77,10.32-9.7,13.51-3.93,3.19-8.35,5.37-13.26,6.51-4.91,1.15-9.66,1.72-14.25,1.72h-18.42c-1.64,0-3.03-.57-4.18-1.72-1.15-1.14-1.72-2.54-1.72-4.18v-77.13c0-1.64.57-3.03,1.72-4.18,1.14-1.14,2.54-1.72,4.18-1.72h18.42c4.58,0,9.29.58,14.12,1.72,4.83,1.15,9.25,3.32,13.26,6.51,4.01,3.19,7.28,7.7,9.82,13.51,2.54,5.81,3.81,13.39,3.81,22.72s-1.27,16.91-3.81,22.72Z"/>
    <path class="st0" d="M585.84,393.53h-34.39c-1.64,0-3.03.58-4.18,1.72-1.15,1.15-1.72,2.54-1.72,4.18v122.81c0,1.64-.53,3.03-1.6,4.18-1.07,1.15-2.5,1.72-4.3,1.72h-36.84c-1.64,0-3.03-.57-4.18-1.72-1.15-1.14-1.72-2.54-1.72-4.18v-122.81c0-1.64-.53-3.03-1.6-4.18-1.07-1.14-2.5-1.72-4.3-1.72h-34.88c-1.64,0-3.03-.57-4.18-1.72-1.15-1.14-1.72-2.54-1.72-4.18v-33.4c0-1.63.57-3.03,1.72-4.18,1.14-1.14,2.54-1.72,4.18-1.72h129.69c1.8,0,3.23.58,4.3,1.72,1.06,1.15,1.6,2.54,1.6,4.18v33.4c0,1.64-.53,3.03-1.6,4.18-1.07,1.15-2.5,1.72-4.3,1.72Z"/>
  </g>
  <g>
    <g>
      <path class="st0" d="M824.75,723.87c-.62,1.38-1.65,2.57-3.11,3.57-1.46,1-2.95,1.5-4.49,1.5h-39.57c-.77,0-1.57-.15-2.42-.46-.84-.31-1.53-.77-2.07-1.38-.54-.61-.88-1.38-1.04-2.3-.15-.92.08-1.99.69-3.22l66.72-155.75c.61-1.38,1.65-2.57,3.11-3.57,1.46-1,3.03-1.5,4.72-1.5h32.21c1.53,0,3.03.5,4.49,1.5,1.46,1,2.49,2.19,3.11,3.57l67.18,156.44c.61,1.38.5,2.84-.35,4.37-.84,1.54-2.49,2.3-4.95,2.3h-39.34c-1.69,0-3.26-.5-4.72-1.5-1.46-1-2.57-2.19-3.34-3.57l-24.85-63.04c-1.53-3.83-3.38-8.32-5.52-13.46-2.15-5.14-4.14-9.93-5.98-14.38-.62-1.38-1.31-2.07-2.07-2.07s-1.46.69-2.07,2.07l-11.5,27.84-24.85,63.04Z"/>
      <path class="st0" d="M863.75,683.65c.17-1.74.95-3.41,2.21-4.62,1.46-1.4,3.49-2.15,5.51-2.04.22.01.42-.14.44-.36l.11-.97c.03-.23-.14-.45-.38-.46-1.84-.12-3.7.35-5.28,1.29-.31-.84-.96-1.57-1.62-2.18-1.86-1.69-4.03-2.99-6.36-3.8-.33-.11-.65.19-.57.53.43,1.82.93,3.65,1.86,5.25.84,1.46,2.11,2.71,3.6,3.28-.72,1.19-1.17,2.53-1.31,3.91-.04,0-.09,0-.13,0-5.63,0-10.2,4.57-10.2,10.2s4.57,10.2,10.2,10.2,10.2-4.57,10.2-10.2c0-4.97-3.56-9.11-8.27-10.01Z"/>
    </g>
    <path class="st0" d="M787.98,594.47h-34.39c-1.64,0-3.03.58-4.18,1.72-1.15,1.15-1.72,2.54-1.72,4.18v122.81c0,1.64-.53,3.03-1.6,4.18-1.07,1.15-2.5,1.72-4.3,1.72h-36.84c-1.64,0-3.03-.57-4.18-1.72-1.15-1.14-1.72-2.54-1.72-4.18v-122.81c0-1.64-.53-3.03-1.6-4.18-1.07-1.14-2.5-1.72-4.3-1.72h-34.88c-1.64,0-3.03-.57-4.18-1.72-1.15-1.14-1.72-2.54-1.72-4.18v-33.4c0-1.63.57-3.03,1.72-4.18,1.14-1.14,2.54-1.72,4.18-1.72h129.69c1.8,0,3.23.58,4.3,1.72,1.06,1.15,1.6,2.54,1.6,4.18v33.4c0,1.64-.53,3.03-1.6,4.18-1.07,1.15-2.5,1.72-4.3,1.72Z"/>
    <path class="st0" d="M307.35,681.42c-4.75,7.68-9.99,14.65-15.72,20.92-5.73,6.27-12.16,11.61-19.28,16-7.12,4.4-15.03,7.82-23.7,10.26-8.68,2.44-18.26,3.67-28.74,3.67-13.1,0-25.38-2.46-36.84-7.37-11.46-4.91-21.49-11.54-30.09-19.9-8.6-8.35-15.35-18.18-20.26-29.47-4.91-11.3-7.37-23.33-7.37-36.11s2.46-24.81,7.37-36.11c4.91-11.3,11.67-21.12,20.26-29.47,8.6-8.35,18.63-14.98,30.09-19.9,11.46-4.91,23.74-7.37,36.84-7.37,10.81,0,20.55,1.23,29.23,3.68,8.68,2.46,16.54,5.89,23.58,10.32,7.04,4.42,13.39,9.79,19.04,16.09,5.65,6.31,10.85,13.23,15.6,20.76.82,1.31.98,2.7.49,4.18-.49,1.47-1.47,2.54-2.95,3.19l-34.88,13.75c-1.64.66-3.28.66-4.91,0-1.64-.65-2.87-1.63-3.68-2.95-4.75-7.53-10.48-13.3-17.19-17.32-6.72-4.01-14.82-6.02-24.32-6.02-6.22,0-12.08,1.32-17.56,3.94-5.49,2.63-10.28,6.11-14.37,10.47-4.09,4.35-7.29,9.4-9.58,15.14-2.29,5.75-3.44,11.66-3.44,17.73s1.14,12.19,3.44,17.85c2.29,5.66,5.48,10.63,9.58,14.9,4.09,4.27,8.88,7.72,14.37,10.34,5.48,2.63,11.34,3.94,17.56,3.94,9,0,17.15-2.17,24.44-6.51,7.28-4.34,13.06-9.95,17.32-16.83.82-1.31,2-2.29,3.56-2.95,1.55-.65,3.15-.65,4.79,0l34.88,13.75c1.47.66,2.46,1.68,2.95,3.07.49,1.39.33,2.82-.49,4.3Z"/>
    <path class="st0" d="M374.15,600.36v10.32c0,1.64.57,3.03,1.72,4.18,1.14,1.15,2.54,1.72,4.18,1.72h66.56c1.63,0,3.03.58,4.18,1.72,1.14,1.15,1.72,2.54,1.72,4.18v33.9c0,1.64-.58,3.03-1.72,4.18s-2.54,1.72-4.18,1.72h-66.56c-1.64,0-3.03.58-4.18,1.72-1.15,1.15-1.72,2.54-1.72,4.18v9.33c0,1.64.57,3.03,1.72,4.18,1.14,1.15,2.54,1.72,4.18,1.72h76.39c1.63,0,3.03.58,4.18,1.72,1.14,1.15,1.72,2.54,1.72,4.18v33.9c0,1.64-.58,3.03-1.72,4.18-1.15,1.15-2.54,1.72-4.18,1.72h-125.02c-1.64,0-3.03-.57-4.18-1.72-1.15-1.14-1.72-2.54-1.72-4.18v-168.01c0-1.63.57-3.03,1.72-4.18,1.14-1.14,2.54-1.72,4.18-1.72h125.02c1.63,0,3.03.58,4.18,1.72,1.14,1.15,1.72,2.54,1.72,4.18v33.4c0,1.64-.58,3.03-1.72,4.18-1.15,1.15-2.54,1.72-4.18,1.72h-76.39c-1.64,0-3.03.58-4.18,1.72-1.15,1.15-1.72,2.54-1.72,4.18Z"/>
    <path class="st0" d="M651.46,722.44c-5.4-7.2-11.54-15.14-18.42-23.83-6.88-8.68-13.43-17.11-19.65-25.3-.98-1.31-1.27-2.66-.86-4.05.41-1.39,1.27-2.58,2.58-3.56,3.93-2.46,7.45-5.53,10.56-9.21,3.11-3.68,5.81-7.82,8.11-12.4,2.29-4.58,4.05-9.46,5.28-14.61,1.23-5.16,1.84-10.35,1.84-15.6,0-9.5-1.6-18.18-4.79-26.04-3.19-7.86-7.61-14.65-13.26-20.39-5.65-5.73-12.49-10.19-20.51-13.39-8.02-3.19-16.79-4.79-26.28-4.79h-76.39c-1.64,0-3.03.58-4.18,1.72-1.15,1.15-1.72,2.54-1.72,4.18v168.01c0,1.64.58,3.03,1.73,4.18,1.15,1.15,2.55,1.72,4.2,1.72h36.78c1.64,0,3.04-.57,4.2-1.72,1.15-1.14,1.73-2.54,1.73-4.18v-39.79c0-1.63.57-3.03,1.71-4.18,1.14-1.14,2.53-1.72,4.16-1.72h5.38c1.63,0,3.34.45,5.13,1.35,1.79.9,3.18,2.01,4.16,3.32,5.05,7.21,10.14,14.33,15.28,21.37,5.13,7.04,10.31,14,15.52,20.88.98,1.31,2.41,2.42,4.3,3.32,1.88.9,3.64,1.35,5.28,1.35h45.69c1.63,0,2.7-.78,3.19-2.33.49-1.55.25-2.99-.74-4.3ZM590.56,621.98c-1.14,2.29-2.61,4.22-4.4,5.77-1.79,1.56-3.75,2.7-5.86,3.44-2.12.74-4.16,1.11-6.11,1.11h-25.91c-1.63,0-3.01-.57-4.15-1.72-1.14-1.14-1.71-2.54-1.71-4.18v-26.04c0-1.64.57-3.03,1.71-4.18,1.14-1.14,2.53-1.72,4.15-1.72h25.91c3.42,0,6.31.7,8.68,2.09,2.36,1.39,4.24,3.11,5.62,5.16,1.38,2.05,2.36,4.18,2.93,6.39.57,2.21.86,4.14.86,5.77,0,3.11-.57,5.81-1.71,8.11Z"/>
  </g>
</svg>